<?xml version="1.0"?>
<svg xmlns="http://www.w3.org/2000/svg" xmlns:xlink="http://www.w3.org/1999/xlink" xmlns:svgjs="http://svgjs.com/svgjs" version="1.1" width="512" height="512" x="0" y="0" viewBox="0 0 436.907 436.907" style="enable-background:new 0 0 512 512" xml:space="preserve" class=""><g>
<circle xmlns="http://www.w3.org/2000/svg" style="" cx="218.453" cy="218.453" r="218.453" fill="#e7796c" data-original="#45b39c" class=""/>
<path xmlns="http://www.w3.org/2000/svg" style="" d="M317.45,115.395V95.797c0-2.951-2.392-5.343-5.343-5.343  c-2.951,0-5.343,2.392-5.343,5.343v19.598h-2.502l-23.223-23.224l-0.003,0.014c-0.976-1.058-2.362-1.731-3.916-1.731  c-2.951,0-5.343,2.392-5.343,5.343v19.598h-84.851L163.74,92.209l-0.001,0.02c-0.978-1.083-2.378-1.775-3.952-1.775  c-2.951,0-5.343,2.392-5.343,5.343v19.598h-2.508L128.75,92.209l-0.003,0.014c-0.978-1.079-2.376-1.77-3.948-1.77  c-2.951,0-5.343,2.392-5.343,5.343v19.598H90.453v41.999v5.88v0.84v175.621v6.72l86.459,86.459  c13.454,2.591,27.331,3.994,41.541,3.994c120.649,0,218.453-97.805,218.453-218.453c0-4.376-0.166-8.712-0.42-13.025l-90.034-90.034  H317.45z" fill="#9b3939" data-original="#000000" class=""/>
<rect xmlns="http://www.w3.org/2000/svg" x="90.453" y="164.113" style="" width="256" height="182.34" fill="#e1e6e9" data-original="#e1e6e9" class=""/>
<rect xmlns="http://www.w3.org/2000/svg" x="90.453" y="157.389" style="" width="256" height="182.34" fill="#ebf0f3" data-original="#ebf0f3" class=""/>
<rect xmlns="http://www.w3.org/2000/svg" x="90.453" y="157.389" style="" width="256" height="5.881" fill="#e1e6e9" data-original="#e1e6e9" class=""/>
<rect xmlns="http://www.w3.org/2000/svg" x="90.453" y="115.395" style="" width="256" height="41.998" fill="#498dbf" data-original="#e56353" class=""/>
<circle xmlns="http://www.w3.org/2000/svg" style="" cx="124.802" cy="134.758" r="8.008" fill="#ce412d" data-original="#ce412d" class=""/>
<path xmlns="http://www.w3.org/2000/svg" style="" d="M124.8,90.453c-2.951,0-5.343,2.392-5.343,5.343v39.023c0,2.951,2.392,5.343,5.343,5.343  c2.952,0,5.343-2.392,5.343-5.343V95.797C130.143,92.846,127.752,90.453,124.8,90.453z" fill="#e1e6e9" data-original="#e1e6e9" class=""/>
<circle xmlns="http://www.w3.org/2000/svg" style="" cx="159.788" cy="134.758" r="8.008" fill="#ce412d" data-original="#ce412d" class=""/>
<path xmlns="http://www.w3.org/2000/svg" style="" d="M159.787,90.453c-2.951,0-5.343,2.392-5.343,5.343v39.023c0,2.951,2.392,5.343,5.343,5.343  c2.952,0,5.343-2.392,5.343-5.343V95.797C165.13,92.846,162.738,90.453,159.787,90.453z" fill="#e1e6e9" data-original="#e1e6e9" class=""/>
<circle xmlns="http://www.w3.org/2000/svg" style="" cx="277.129" cy="134.758" r="8.008" fill="#ce412d" data-original="#ce412d" class=""/>
<path xmlns="http://www.w3.org/2000/svg" style="" d="M277.12,90.453c-2.951,0-5.343,2.392-5.343,5.343v39.023c0,2.951,2.392,5.343,5.343,5.343  c2.952,0,5.343-2.392,5.343-5.343V95.797C282.463,92.846,280.072,90.453,277.12,90.453z" fill="#e1e6e9" data-original="#e1e6e9" class=""/>
<circle xmlns="http://www.w3.org/2000/svg" style="" cx="312.115" cy="134.758" r="8.008" fill="#ce412d" data-original="#ce412d" class=""/>
<path xmlns="http://www.w3.org/2000/svg" style="" d="M312.107,90.453c-2.951,0-5.343,2.392-5.343,5.343v39.023c0,2.951,2.393,5.343,5.343,5.343  c2.952,0,5.343-2.392,5.343-5.343V95.797C317.45,92.846,315.058,90.453,312.107,90.453z" fill="#e1e6e9" data-original="#e1e6e9" class=""/>
<rect xmlns="http://www.w3.org/2000/svg" x="226.372" y="178.244" style="" width="24.842" height="24.842" fill="#44c4a1" data-original="#44c4a1" class=""/>
<rect xmlns="http://www.w3.org/2000/svg" x="267.059" y="178.244" style="" width="24.842" height="24.842" fill="#64798a" data-original="#64798a" class=""/>
<rect xmlns="http://www.w3.org/2000/svg" x="307.746" y="178.244" style="" width="24.842" height="24.842" fill="#498dbf" data-original="#e56353" class=""/>
<g xmlns="http://www.w3.org/2000/svg">
	<rect x="104.308" y="220.262" style="" width="24.842" height="24.842" fill="#64798a" data-original="#64798a" class=""/>
	<rect x="144.998" y="220.262" style="" width="24.842" height="24.842" fill="#64798a" data-original="#64798a" class=""/>
	<rect x="185.685" y="220.262" style="" width="24.842" height="24.842" fill="#64798a" data-original="#64798a" class=""/>
</g>
<rect xmlns="http://www.w3.org/2000/svg" x="226.372" y="220.262" style="" width="24.842" height="24.842" fill="#44c4a1" data-original="#44c4a1" class=""/>
<rect xmlns="http://www.w3.org/2000/svg" x="267.059" y="220.262" style="" width="24.842" height="24.842" fill="#64798a" data-original="#64798a" class=""/>
<rect xmlns="http://www.w3.org/2000/svg" x="307.746" y="220.262" style="" width="24.842" height="24.842" fill="#498dbf" data-original="#e56353" class=""/>
<g xmlns="http://www.w3.org/2000/svg">
	<rect x="104.308" y="262.281" style="" width="24.842" height="24.842" fill="#64798a" data-original="#64798a" class=""/>
	<rect x="144.998" y="262.281" style="" width="24.842" height="24.842" fill="#64798a" data-original="#64798a" class=""/>
	<rect x="185.685" y="262.281" style="" width="24.842" height="24.842" fill="#64798a" data-original="#64798a" class=""/>
</g>
<rect xmlns="http://www.w3.org/2000/svg" x="226.372" y="262.281" style="" width="24.842" height="24.842" fill="#44c4a1" data-original="#44c4a1" class=""/>
<rect xmlns="http://www.w3.org/2000/svg" x="267.059" y="262.281" style="" width="24.842" height="24.842" fill="#64798a" data-original="#64798a" class=""/>
<rect xmlns="http://www.w3.org/2000/svg" x="307.746" y="262.281" style="" width="24.842" height="24.842" fill="#498dbf" data-original="#e56353" class=""/>
<g xmlns="http://www.w3.org/2000/svg">
	<rect x="104.308" y="304.299" style="" width="24.842" height="24.842" fill="#64798a" data-original="#64798a" class=""/>
	<rect x="144.998" y="304.299" style="" width="24.842" height="24.842" fill="#64798a" data-original="#64798a" class=""/>
	<rect x="185.685" y="304.299" style="" width="24.842" height="24.842" fill="#64798a" data-original="#64798a" class=""/>
</g>
<rect xmlns="http://www.w3.org/2000/svg" x="226.372" y="304.299" style="" width="24.842" height="24.842" fill="#44c4a1" data-original="#44c4a1" class=""/>
<g xmlns="http://www.w3.org/2000/svg">
</g>
<g xmlns="http://www.w3.org/2000/svg">
</g>
<g xmlns="http://www.w3.org/2000/svg">
</g>
<g xmlns="http://www.w3.org/2000/svg">
</g>
<g xmlns="http://www.w3.org/2000/svg">
</g>
<g xmlns="http://www.w3.org/2000/svg">
</g>
<g xmlns="http://www.w3.org/2000/svg">
</g>
<g xmlns="http://www.w3.org/2000/svg">
</g>
<g xmlns="http://www.w3.org/2000/svg">
</g>
<g xmlns="http://www.w3.org/2000/svg">
</g>
<g xmlns="http://www.w3.org/2000/svg">
</g>
<g xmlns="http://www.w3.org/2000/svg">
</g>
<g xmlns="http://www.w3.org/2000/svg">
</g>
<g xmlns="http://www.w3.org/2000/svg">
</g>
<g xmlns="http://www.w3.org/2000/svg">
</g>
</g></svg>
