<?xml version="1.0" encoding="iso-8859-1"?>
<!-- Generator: Adobe Illustrator 19.0.0, SVG Export Plug-In . SVG Version: 6.00 Build 0)  -->
<svg version="1.1" id="Capa_1" xmlns="http://www.w3.org/2000/svg" xmlns:xlink="http://www.w3.org/1999/xlink" x="0px" y="0px"
	 viewBox="0 0 511.754 511.754" style="enable-background:new 0 0 511.754 511.754;" xml:space="preserve">
<circle style="fill:#ECEFF1;" cx="159.596" cy="159.754" r="128"/>
<circle style="fill:#F44336;" cx="159.596" cy="159.754" r="48"/>
<path d="M159.596,287.754c-70.692,0-128-57.308-128-128s57.308-128,128-128s128,57.308,128,128
	c0.514,70.178-55.959,127.486-126.137,128C160.838,287.759,160.217,287.759,159.596,287.754z M159.596,63.754
	c-53.019,0.023-95.982,43.022-95.959,96.041s43.022,95.982,96.041,95.959s95.982-43.022,95.959-96.041
	c-0.005-11.07-1.924-22.055-5.673-32.471C236.248,89.136,200.094,63.737,159.596,63.754z"/>
<path d="M399.596,511.754c-6.756,0.006-12.788-4.233-15.072-10.592l-172.8-480c-2.849-8.365,1.623-17.455,9.988-20.304
	c8.169-2.782,17.073,1.416,20.124,9.488l172.8,480c2.987,8.316-1.334,17.48-9.65,20.466
	C403.256,511.433,401.433,511.752,399.596,511.754z"/>
<path d="M495.596,415.754c-1.843,0.004-3.672-0.31-5.408-0.928l-480-172.8c-8.168-3.373-12.054-12.728-8.682-20.896
	c3.153-7.636,11.602-11.616,19.498-9.184l480,172.8c8.289,3.062,12.526,12.264,9.464,20.553
	C508.164,411.535,502.244,415.697,495.596,415.754z"/>
<path d="M159.596,223.754c-35.346,0-64-28.654-64-64s28.654-64,64-64s64,28.654,64,64S194.942,223.754,159.596,223.754z
	 M159.596,127.754c-17.673,0-32,14.327-32,32s14.327,32,32,32s32-14.327,32-32S177.269,127.754,159.596,127.754z"/>
<g>
</g>
<g>
</g>
<g>
</g>
<g>
</g>
<g>
</g>
<g>
</g>
<g>
</g>
<g>
</g>
<g>
</g>
<g>
</g>
<g>
</g>
<g>
</g>
<g>
</g>
<g>
</g>
<g>
</g>
</svg>
