<?xml version="1.0" standalone="no"?>
<!DOCTYPE svg PUBLIC "-//W3C//DTD SVG 20010904//EN"
 "http://www.w3.org/TR/2001/REC-SVG-20010904/DTD/svg10.dtd">
<svg version="1.0" xmlns="http://www.w3.org/2000/svg"
 width="156.000000pt" height="141.000000pt" viewBox="0 0 156.000000 141.000000"
 preserveAspectRatio="xMidYMid meet">

<g transform="translate(0.000000,141.000000) scale(0.100000,-0.100000)"
fill="#000000" stroke="none">
<path d="M270 1374 c-6 -14 -10 -115 -10 -225 l0 -199 -99 0 c-84 0 -102 -3
-125 -21 l-26 -20 0 -420 0 -421 29 -29 29 -29 615 0 615 0 31 26 c20 16 33
38 37 62 3 20 37 106 75 190 144 314 144 352 -3 352 -62 0 -68 2 -68 21 0 11
-13 34 -29 50 -25 24 -37 29 -80 29 l-51 0 0 318 c0 234 -3 321 -12 330 -9 9
-126 12 -465 12 l-453 0 -10 -26z m900 -324 l0 -310 -79 0 c-69 0 -79 2 -77
18 1 16 -15 17 -204 17 -189 0 -205 -1 -204 -17 2 -16 -9 -18 -87 -18 l-89 0
0 80 c0 73 -3 83 -25 105 -16 17 -35 25 -60 25 l-35 0 0 205 0 205 430 0 430
0 0 -310z m-792 -152 c8 -8 12 -46 12 -105 l0 -93 450 0 c437 0 451 -1 470
-20 19 -19 20 -33 20 -299 0 -266 -1 -279 -21 -305 l-20 -26 -604 0 -604 0
-15 22 c-14 19 -16 76 -16 420 0 368 1 398 18 407 25 15 295 14 310 -1z m1121
-311 c12 -16 -10 -92 -47 -163 l-21 -39 -1 101 c0 55 3 104 7 107 11 12 50 8
62 -6z"/>
<path d="M605 1270 c-15 -24 12 -30 140 -30 105 0 134 3 138 14 3 8 3 17 0 20
-11 10 -271 7 -278 -4z"/>
<path d="M607 1184 c-19 -19 23 -24 209 -24 175 0 204 2 204 15 0 13 -29 15
-203 15 -112 0 -207 -3 -210 -6z"/>
<path d="M611 1061 c-8 -5 -11 -16 -8 -25 5 -14 26 -16 135 -16 95 0 132 4
141 13 23 28 -9 37 -134 37 -66 0 -126 -4 -134 -9z"/>
<path d="M605 969 c-16 -25 19 -29 211 -27 169 3 199 5 199 18 0 13 -30 15
-202 18 -139 2 -204 -1 -208 -9z"/>
<path d="M603 854 c-10 -27 17 -34 143 -34 89 0 125 4 133 13 23 29 -9 37
-141 37 -109 0 -130 -2 -135 -16z"/>
<path d="M638 551 c-97 -62 -117 -209 -40 -294 75 -83 228 -73 299 19 50 66
43 181 -16 248 -54 62 -168 75 -243 27z m180 -31 c130 -80 74 -280 -79 -280
-154 0 -204 216 -67 283 45 22 106 21 146 -3z"/>
<path d="M704 486 c-69 -30 -86 -111 -35 -168 78 -87 217 8 167 114 -25 53
-81 76 -132 54z"/>
</g>
</svg>
