<?xml version="1.0"?>
<svg xmlns="http://www.w3.org/2000/svg" xmlns:xlink="http://www.w3.org/1999/xlink" xmlns:svgjs="http://svgjs.com/svgjs" version="1.1" width="512" height="512" x="0" y="0" viewBox="0 0 512 512" style="enable-background:new 0 0 512 512" xml:space="preserve" class=""><g><g xmlns="http://www.w3.org/2000/svg"><g><path d="m16 408h480v32h-480z" fill="#d5b32d" data-original="#d8d7da" style="" class=""/><path d="m88 384h336v24h-336z" fill="#2d2d30" data-original="#2d2d30" style="" class=""/><path d="m256 128a224 224 0 0 1 224 224v32a0 0 0 0 1 0 0h-448a0 0 0 0 1 0 0v-32a224 224 0 0 1 224-224z" fill="#d5b32d" data-original="#d8d7da" style="" class=""/><path d="m216 72h80v24h-80z" fill="#afafaf" data-original="#ff9811" style="" class=""/></g><path d="m496 400h-64v-8h48a8 8 0 0 0 8-8v-32a231.974 231.974 0 0 0 -224-231.85v-16.15h32a8 8 0 0 0 8-8v-24a8 8 0 0 0 -8-8h-80a8 8 0 0 0 -8 8v24a8 8 0 0 0 8 8h32v16.15a231.974 231.974 0 0 0 -224 231.85v32a8 8 0 0 0 8 8h48v8h-64a8 8 0 0 0 -8 8v32a8 8 0 0 0 8 8h480a8 8 0 0 0 8-8v-32a8 8 0 0 0 -8-8zm-272-312v-8h64v8zm-184 288v-24a216 216 0 0 1 368.73-152.74 214.588 214.588 0 0 1 63.27 152.74v24zm376 16v8h-320v-8zm72 40h-464v-16h464z" fill="#000000" data-original="#000000" style="" class=""/></g></g></svg>
