<svg id="Fill_out_line" height="512" viewBox="0 0 512 512" width="512" xmlns="http://www.w3.org/2000/svg" data-name="Fill out line"><path d="m464 112v64h-16l-40 40h-160v-128h176l24 24z" fill="#f6d0b1"/><path d="m464 104h32v104h-32z" fill="#37a0c5"/><path d="m272 32h112v208h-112z" fill="#349b66"/><path d="m360 32h24v208h-24z" fill="#008251"/><path d="m272 32h24v208h-24z" fill="#008251"/><circle cx="328" cy="136" fill="#c6d6e2" r="32"/><g fill="#f0de9c"><path d="m168 192v24h-32v-24a16 16 0 0 1 32 0z"/><path d="m256 312h-208q0-4.03491.3-8a104.00875 104.00875 0 0 1 207.4 0q.29988 3.96021.3 8z"/><path d="m280 312a32.00409 32.00409 0 0 1 -32 32h-192a31.89884 31.89884 0 0 1 -22.62988-9.37012 31.19439 31.19439 0 0 1 -3.65012-4.36988 31.8112 31.8112 0 0 1 -5.72-18.26z"/></g><path d="m464 152h-40a40 40 0 0 1 -40-40 16 16 0 0 0 -16-16h-8a32 32 0 0 1 -32-32h72l48 48h16z" fill="#f6d0b1"/><path d="m264 368-32 48-64 32h-64l-24 24-32-40 40-40h40a54.63454 54.63454 0 0 1 38.62988-16h17.37012l-32 32h24l40-16a53.90228 53.90228 0 0 1 44.84009-24z" fill="#f6d0b1"/><path d="m16 440 32-32 64 64-24 24h-72z" fill="#37a0c5"/><path d="m496 112v-16h-32a8.00039 8.00039 0 0 0 -8 8h-4.68652l-45.65625-45.65723a8.00235 8.00235 0 0 0 -5.65723-2.34277h-8v-24a8.00039 8.00039 0 0 0 -8-8h-112a8.00039 8.00039 0 0 0 -8 8v48h-16a8.00039 8.00039 0 0 0 -8 8v128a8.00039 8.00039 0 0 0 8 8h16v16a8.00039 8.00039 0 0 0 8 8h112a8.00039 8.00039 0 0 0 8-8v-16h16a8.00235 8.00235 0 0 0 5.65723-2.34277l37.65625-37.65723h4.68652v24a8.00039 8.00039 0 0 0 8 8h32v-16h-24v-88zm-240 96v-112h8v112zm120-152h-8v-16h8zm-48 0a8.153 8.153 0 0 0 -.81787.04126 7.99327 7.99327 0 0 0 -7.18213 7.95874 39.992 39.992 0 0 0 17.71289 33.19873 39.92238 39.92238 0 0 0 -33.71289 6.82327v-64.022h48v16zm-24 111.978a39.91239 39.91239 0 0 0 48 0v64.022h-48zm0-31.978a24 24 0 1 1 24 24 24.0275 24.0275 0 0 1 -24-24zm48-31.978q-.83972-.63171-1.71289-1.2207c.56689.14209 1.13672.27637 1.71289.3938zm-72-64.022h8v192h-8zm96 192h-8v-128a8.00917 8.00917 0 0 1 8 8zm72-64a8.00235 8.00235 0 0 0 -5.65723 2.34277l-37.65625 37.65723h-12.68652v-60.261a47.80184 47.80184 0 0 0 32 12.261v-16a32.03667 32.03667 0 0 1 -32-32 24.0275 24.0275 0 0 0 -24-24h-8a24.04166 24.04166 0 0 1 -22.62891-16h59.31543l45.65625 45.65723a8.00235 8.00235 0 0 0 5.65723 2.34277h8v48z"/><circle cx="328" cy="208" r="8"/><path d="m264 360h-3.15527a61.76012 61.76012 0 0 0 -50.03711 25.46094l-36.34862 14.53906h-3.14453l18.34278-18.34277a8.00066 8.00066 0 0 0 -5.65725-13.65723h-17.373a62.16916 62.16916 0 0 0 -41.8125 16h-36.8145a8.00235 8.00235 0 0 0 -5.65723 2.34277l-22.34277 22.34278-6.34277-6.34278a8.003 8.003 0 0 0 -11.31446 0l-24 24 11.31446 11.31446 18.34277-18.34375 52.68652 52.68652-10.34375 10.34277 11.31446 11.31446 16-16a8.00122 8.00122 0 0 0 0-11.31446l-10.34278-10.34277h60.68555a7.99934 7.99934 0 0 0 3.57812-.84473l64-32a7.99763 7.99763 0 0 0 3.07813-2.71777l32-48a7.99977 7.99977 0 0 0 -6.65625-12.4375zm-37.47754 49.79492-60.41113 30.20508h-62.11133a8.00235 8.00235 0 0 0 -5.65723 2.34277l-2.34277 2.34278-24.68555-24.68555 19.999-20h36.68655a8.00235 8.00235 0 0 0 5.65723-2.34277 46.2886 46.2886 0 0 1 30.98828-13.61623l-34.30274 34.30175 11.31446 11.31446 13.65722-13.65721h20.68555a7.99723 7.99723 0 0 0 2.9707-.57227l40-16a7.99423 7.99423 0 0 0 3.68555-2.99023 45.80591 45.80591 0 0 1 25.13867-18.55273z"/><path d="m280 304h-16.28882a112.23233 112.23233 0 0 0 -87.71118-101.40259v-10.59741a24 24 0 0 0 -48 0v10.59741a112.23233 112.23233 0 0 0 -87.71118 101.40259h-16.28882a8.00039 8.00039 0 0 0 -8 8 40.04584 40.04584 0 0 0 40 40h192a40.04584 40.04584 0 0 0 40-40 8.00039 8.00039 0 0 0 -8-8zm-136-112a8 8 0 1 1 16 0v8.28882c-2.64331-.1875-5.30981-.28882-8-.28882s-5.35669.10132-8 .28882zm8 24a96.12658 96.12658 0 0 1 95.66382 88h-191.32764a96.12658 96.12658 0 0 1 95.66382-88zm96 120h-192a24.04166 24.04166 0 0 1 -22.62891-16h237.25782a24.04166 24.04166 0 0 1 -22.62891 16z"/></svg>